<svg t="1621917282906" class="icon" viewBox="0 0 1024 1024" version="1.1" xmlns="http://www.w3.org/2000/svg" xmlns:xlink="http://www.w3.org/1999/xlink" width="16" height="16">
  <path d="M682.667 213.333C682.667 192.213 665.92 175.467 644.8 175.467 623.68 175.467 606.933 192.213 606.933 213.333 606.933 234.453 623.68 251.2 644.8 251.2 665.92 251.2 682.667 234.453 682.667 213.333Z" fill="#5E6D82"></path>
  <path d="M341.333 213.333C341.333 192.213 324.587 175.467 303.467 175.467 282.347 175.467 265.6 192.213 265.6 213.333 265.6 234.453 282.347 251.2 303.467 251.2 324.587 251.2 341.333 234.453 341.333 213.333Z" fill="#5E6D82"></path>
  <path d="M512 768C460.8 768 426.667 740.267 426.667 704V597.333C426.667 560.747 460.8 533.333 512 533.333 563.2 533.333 597.333 560.747 597.333 597.333V704C597.333 740.267 563.2 768 512 768Z" fill="#5E6D82"></path>
  <path d="M768 384H256C241.92 384 230.4 372.48 230.4 358.4V345.6C230.4 331.52 241.92 320 256 320H768C782.08 320 793.6 331.52 793.6 345.6V358.4C793.6 372.48 782.08 384 768 384Z" fill="#5E6D82"></path>
  <path d="M512 640C414.72 640 341.333 566.613 341.333 469.333 341.333 372.053 414.72 298.667 512 298.667 609.28 298.667 682.667 372.053 682.667 469.333 682.667 566.613 609.28 640 512 640ZM512 362.667C459.093 362.667 417.067 404.693 417.067 457.6 417.067 510.507 459.093 552.533 512 552.533 564.907 552.533 606.933 510.507 606.933 457.6 606.933 404.693 564.907 362.667 512 362.667Z" fill="#5E6D82"></path>
</svg>
