<svg t="1621917282907" class="icon" viewBox="0 0 1024 1024" version="1.1" xmlns="http://www.w3.org/2000/svg" xmlns:xlink="http://www.w3.org/1999/xlink" width="16" height="16">
  <path d="M384 256H128C119.168 256 112 263.168 112 272V352C112 360.832 119.168 368 128 368H384C392.832 368 400 360.832 400 352V272C400 263.168 392.832 256 384 256Z" fill="#5E6D82"></path>
  <path d="M224 464H96C87.168 464 80 471.168 80 480V560C80 568.832 87.168 576 96 576H224C232.832 576 240 568.832 240 560V480C240 471.168 232.832 464 224 464Z" fill="#5E6D82"></path>
  <path d="M928 256H672C663.168 256 656 263.168 656 272V352C656 360.832 663.168 368 672 368H928C936.832 368 944 360.832 944 352V272C944 263.168 936.832 256 928 256Z" fill="#5E6D82"></path>
  <path d="M800 464H672C663.168 464 656 471.168 656 480V560C656 568.832 663.168 576 672 576H800C808.832 576 816 568.832 816 560V480C816 471.168 808.832 464 800 464Z" fill="#5E6D82"></path>
  <path d="M352 464H224C215.168 464 208 471.168 208 480V560C208 568.832 215.168 576 224 576H352C360.832 576 368 568.832 368 560V480C368 471.168 360.832 464 352 464Z" fill="#5E6D82"></path>
  <path d="M928 464H800C791.168 464 784 471.168 784 480V560C784 568.832 791.168 576 800 576H928C936.832 576 944 568.832 944 560V480C944 471.168 936.832 464 928 464Z" fill="#5E6D82"></path>
  <path d="M800 208H640C623.36 208 608 192.64 608 176V144C608 127.36 623.36 112 640 112H800C816.64 112 832 127.36 832 144V176C832 192.64 816.64 208 800 208Z" fill="#5E6D82"></path>
  <path d="M896 608H736C719.36 608 704 592.64 704 576V544C704 527.36 719.36 512 736 512H896C912.64 512 928 527.36 928 544V576C928 592.64 912.64 608 896 608Z" fill="#5E6D82"></path>
  <path d="M576 608H416C399.36 608 384 592.64 384 576V544C384 527.36 399.36 512 416 512H576C592.64 512 608 527.36 608 544V576C608 592.64 592.64 608 576 608Z" fill="#5E6D82"></path>
  <path d="M512 816H128C119.168 816 112 823.168 112 832V864C112 872.832 119.168 880 128 880H512C520.832 880 528 872.832 528 864V832C528 823.168 520.832 816 512 816Z" fill="#5E6D82"></path>
</svg>
